<svg id="Layer_1" data-name="Layer 1" xmlns="http://www.w3.org/2000/svg" xmlns:xlink="http://www.w3.org/1999/xlink" viewBox="0 0 460.12 111.12"><defs><style>.cls-1{fill:none;}.cls-2{fill:#1b1b1b;}.cls-3{clip-path:url(#clip-path);}</style><clipPath id="clip-path" transform="translate(0.26 -1.64)"><rect class="cls-1" x="-4.26" y="-2.12" width="118.85" height="118.85" transform="translate(-24.25 52.76) rotate(-42.82)"/></clipPath></defs><path class="cls-2" d="M163.8,37h.36l.51-.07H165a4.6,4.6,0,0,1-1.37,2.74,4.33,4.33,0,0,1-2.53.65h-.65c-.58,0-1.16-.07-1.74-.07s-1.15-.12-1.73-.22a21.59,21.59,0,0,0-3-.21c-.24,0-.73,0-1.45.07a19.75,19.75,0,0,0-2.89.29,6.89,6.89,0,0,0-2.09.72c-1.11,0-2.15,0-3.11.07s-1.73.12-2.46.22-1.56.19-2.24.29c.58,0,1.21.07,1.88.07s1.33.07,2.1.07,1.71,0,2.67.08a7.52,7.52,0,0,0-2,2.81,18.32,18.32,0,0,0-1.08,3.69,34.7,34.7,0,0,0-.51,3.9c0,1.3-.07,2.48-.07,3.54l-1.88.15a11.46,11.46,0,0,0-1.45.21c-.48.1-.91.17-1.3.22a9,9,0,0,0,1.3.22,13.62,13.62,0,0,0,1.45.21c.58,0,1.2.12,1.88.22,0,.58.26.87.79.87H144a12,12,0,0,1,1.88-.15l1.23-.07,1.81-.14a13.35,13.35,0,0,1,1.37-.08,11.11,11.11,0,0,1,1.88.15,5.12,5.12,0,0,1,3,1.59,4.7,4.7,0,0,1,1.09,3.25,5.78,5.78,0,0,1-1.16,3.61A5.58,5.58,0,0,1,152,68a19.34,19.34,0,0,1-3.47.57c-1.15.1-2.31.17-3.46.22a8.26,8.26,0,0,0-1.09.15c-.19,0-.29.26-.29.65-.91,0-1.76.09-2.53.14l-2,.15c-.62.09-1.2.16-1.73.21.53,0,1.13.07,1.8.07s1.18.08,2,.08,1.59,0,2.45.07c.1,1.2.17,2.31.22,3.32a25.29,25.29,0,0,1,.14,2.6v1.23L143.86,79c-.05.53-.12,1.06-.22,1.59a2.26,2.26,0,0,1-1.88,2,16,16,0,0,1-3.1.29,21.33,21.33,0,0,1-2.32-.14,9.24,9.24,0,0,1-2.24-.58A7.35,7.35,0,0,1,132.15,81,4.13,4.13,0,0,1,131,79.07h5.34c1.79,0,3.59-.14,5.42-.28-.77-.1-1.61-.2-2.53-.29s-1.75-.17-2.81-.22-2.15-.07-3.4-.07h-.58l-1.08.07h-.58l-.22-2.6h2.89l2.24-.15c.78,0,1.47,0,2.1-.07-.63-.1-1.32-.19-2.1-.29s-1.44-.17-2.31-.21-1.83-.08-2.89-.08a3.14,3.14,0,0,1-.07-.65v-.72c-.1-1.64-.17-3.28-.22-4.91s0-3.33-.07-5.06h3.32l2.75-.15c.92,0,1.76,0,2.53-.07L136.2,63c-.77-.09-1.69-.16-2.75-.21s-2.11-.08-3.32-.08a13.88,13.88,0,0,1-.07-1.44V59.85c-.05-1.1-.07-2.21-.07-3.32v-3.4c.82,0,1.56-.09,2.24-.14a16.42,16.42,0,0,0,1.8-.22c.63-.09,1.18-.19,1.66-.29-.48-.09-1-.19-1.59-.28a16.42,16.42,0,0,0-1.8-.22c-.68,0-1.42-.07-2.24-.07,0-1.74.07-3.42.22-5.06,1.1-.05,2.14-.07,3.1-.07s1.81-.08,2.53-.08l2.31-.14c-.67-.1-1.44-.19-2.31-.29-.67-.1-1.49-.17-2.46-.22s-2-.07-3.1-.07v-.72c.05-.29.09-.58.14-.87l2.17-.14,1.81-.15c.57-.09,1.1-.19,1.59-.29l-1.52-.29a16,16,0,0,0-1.74-.21l-2.09-.15a42.22,42.22,0,0,1,1.59-6.28,18.44,18.44,0,0,1,3.18-5.78q1.67,0,3.39-.15a25.32,25.32,0,0,0,3.4-.5c-.48-.1-1-.2-1.59-.29a16.32,16.32,0,0,0-1.81-.22c-.62-.05-1.35-.1-2.16-.14a15.22,15.22,0,0,1,4.48-3,15.35,15.35,0,0,0,1.59.08h5l2.82-.15,2.53-.14c-.77-.1-1.62-.2-2.53-.29s-1.76-.17-2.82-.22-2.12-.07-3.32-.07h-.65a2.89,2.89,0,0,0-.58.07l.14-.07a30.23,30.23,0,0,1,4.92-1.16,29.69,29.69,0,0,1,5-.43,32.83,32.83,0,0,1,4.27.29,12.56,12.56,0,0,1,4.19,1.3,7.18,7.18,0,0,1,1.3,1,2.47,2.47,0,0,1,.87,1.3A23.56,23.56,0,0,1,165,32c-.92,0-1.76.09-2.53.14a16.64,16.64,0,0,0-2,.22c-.68.05-1.28.12-1.81.21.53,0,1.13.08,1.81.08s1.25.07,2,.07,1.69,0,2.6.07a6,6,0,0,1,.15,1.16,4.28,4.28,0,0,1,.07.5,4.62,4.62,0,0,1-.15,1.16c-1.34,0-2.69.05-4,.14a21.71,21.71,0,0,0-3.9.51,11.5,11.5,0,0,0,2,.29c.58.09,1.25.19,2,.29S162.89,37,163.8,37Zm45.3,38.8a.62.62,0,0,1,.07.29v.22a.8.8,0,0,0,.08.36,2.79,2.79,0,0,1,.07.58,1.81,1.81,0,0,1-.29,1,2.74,2.74,0,0,1-1.3.65,6.88,6.88,0,0,1-1.95.43,13.21,13.21,0,0,0-1.95.15c-3.62.38-7.2.69-10.77.93s-7.08.37-10.69.37c-1.54,0-3.09,0-4.63-.15s-3-.12-4.55-.22a4.74,4.74,0,0,0-.79-.07,2.28,2.28,0,0,1-.8-.14,3.18,3.18,0,0,1-2.82-2.68,22.26,22.26,0,0,1-.65-4.62h5.57c1.88,0,3.73-.12,5.56-.22l-2.53-.29q-1.23-.13-2.82-.21c-1,0-2.14-.07-3.39-.07h-1.23a9.7,9.7,0,0,0-1.23.07c-.09-1.5-.17-3-.22-4.41s-.09-2.91-.14-4.41a9,9,0,0,0,1.16.07h1.08c.92,0,1.76,0,2.53-.07s1.52-.19,2.09-.29a10,10,0,0,0,2-.29,19.88,19.88,0,0,0-2-.36,19.54,19.54,0,0,0-2.09-.21c-.77-.05-1.61-.08-2.53-.08h-.58l-1.08.08h-.58V56.75h5.49c1.83,0,3.66-.12,5.49-.22-.77-.1-1.61-.19-2.53-.29s-1.75-.17-2.81-.22-2.15-.07-3.4-.07h-1.08a11.28,11.28,0,0,0-1.16.07V51.18c.05-1.63.1-3.25.14-4.84,0-1.15,0-2.31.08-3.47s.09-2.38.14-3.54h5.28c1.78,0,3.56-.12,5.34-.21-.77-.1-1.61-.2-2.53-.29s-1.75-.17-2.81-.22-2.15-.07-3.4-.07h-1.81V37.17c.05-.49.1-1,.15-1.52l2.17-.15a16.58,16.58,0,0,0,1.8-.21c.58-.1,1.11-.19,1.59-.29-.48-.1-1-.19-1.59-.29a13.71,13.71,0,0,0-1.73-.22c-.63-.05-1.35-.07-2.17-.07.05-.82.07-1.61.07-2.38s.12-1.64.22-2.46a4.35,4.35,0,0,1,1-3,4.16,4.16,0,0,1,3-.94c1.87,0,3.73,0,5.56.07l5.64.14H188c1.54.05,3.09.07,4.63.07h4.12c1.73,0,3.46.05,5.2.15a3.51,3.51,0,0,0,.72.07h.51a4.39,4.39,0,0,1,.72.07,4.79,4.79,0,0,1,2.38.65,2.83,2.83,0,0,1,1.09,1.81l-2.68.15c-.81,0-1.54.12-2.16.21a18.93,18.93,0,0,0-1.95.22c.57.05,1.25.07,2,.07l2.17.15c.86,0,1.8,0,2.81.07a23.14,23.14,0,0,1,.22,3.25l-1.73.14a8.77,8.77,0,0,0-1.3.22c-.44.1-.82.17-1.16.22.34,0,.72.12,1.16.21.67.15,1.66.29,3,.44a3.93,3.93,0,0,1-.8,2.31,3.63,3.63,0,0,1-2.24.94c-1.63.19-3.3.34-5,.43-2.22.1-4.38.15-6.5.15H190c-1.59,0-3.75-.17-6.5-.36a2.35,2.35,0,0,1-.72-.08h-.15c-.62,0-.93.34-.93,1s.07,1.43.07,2.1v1.45c0,.67,0,1.37.07,2.09l-1.66.15a8.84,8.84,0,0,0-1.3.21,6.85,6.85,0,0,0-1.16.22c.34,0,.72.12,1.16.22l1.3.14,1.66.14v.65c.05,0,.07,0,.07.08V46a.71.71,0,0,0,.8.8H183c1-.05,1.9-.08,2.81-.08a27.16,27.16,0,0,0,2.82-.14,9,9,0,0,1,1.16-.07c.38,0,.86,0,1.44.07a13.48,13.48,0,0,1,2,.36,2.85,2.85,0,0,1,2.52,2.6c-.77,0-1.46,0-2.09.07a16.28,16.28,0,0,0-1.73.22l-1.52.29,1.52.29a16.28,16.28,0,0,0,1.73.22l2.17.14a11.33,11.33,0,0,1,.07,1.3v1.3l-1.45.15a3.12,3.12,0,0,0-1,.14l-.94.15.94.14a5.23,5.23,0,0,0,1,.22,7.78,7.78,0,0,1,1.45.14.74.74,0,0,1-.07.36A4.1,4.1,0,0,1,195,57a4.39,4.39,0,0,1-2.31.94c-1.06.14-2.12.24-3.18.28s-2.05.08-3.11.08a8.45,8.45,0,0,0-1.22.07h-.65a7,7,0,0,1-1-.07,1,1,0,0,0-1.15,1.15c.09,1,.14,2,.14,3s.12,2,.22,3c-1.11,0-2.12,0-3,.07s-1.71.13-2.38.22c-.82.1-1.57.19-2.24.29.67,0,1.42.07,2.24.07l2.38.15h3a6.32,6.32,0,0,1,.07.94v.86c0,.63.34.94.87.94h1.44c3-.09,6.07-.14,9.11-.14s6.07-.12,9.1-.22h.87a4.85,4.85,0,0,1,2.67.58,3.58,3.58,0,0,1,1.45,2.31c-1.11,0-2.15,0-3.11.07s-1.71.12-2.38.22-1.57.19-2.24.29c.67.05,1.44.1,2.31.14.67,0,1.49,0,2.45.08s2,0,3.11.07a.29.29,0,0,1,.07.22l.15.57.14,1.09L209,75c-1.11,0-2.15,0-3.11.07s-1.78.12-2.46.21l-2.31.29c.72,0,1.49.08,2.31.08l2.53.14Zm33.93-42c.67,0,1.44.07,2.31.07.72,0,1.56.08,2.53.08s2,0,3.1.07l-.14.29a2.07,2.07,0,0,1-2.17,1.44,10.62,10.62,0,0,1-1.23.07h-.94a13.81,13.81,0,0,0-1.44-.07c-1.11,0-2.19,0-3.25.07s-2.05.08-3.11.08c-.82,0-1.23.43-1.23,1.3v2.24c0,.77,0,1.54.07,2.31-1.1,0-2.14,0-3.1.07s-1.74.12-2.46.22-1.56.19-2.24.29l2.24.14c.72,0,1.54,0,2.46.07s2,0,3.1.08V45c.05.77.1,1.57.15,2.39-1.54,0-3.11,0-4.7.14a38.19,38.19,0,0,0-4.69.43c.77,0,1.61.08,2.52.08l2.82.14h4.05V49a3.87,3.87,0,0,0,.07.79l.15,5.64c0,1.88.09,3.73.14,5.56-1.64,0-3.28.05-4.91.15a40.25,40.25,0,0,0-4.84.43l2.52.14,2.82.15H238l.22,8.45-2,.15a6.81,6.81,0,0,0-1.51.14l-1.38.14a10.93,10.93,0,0,0,1.38.08,13.45,13.45,0,0,0,1.51.07c.63,0,1.3,0,2,.07V73.8c-1.11,0-2.15,0-3.11.07s-1.81.12-2.53.22c-.87.09-1.64.19-2.31.29.67.05,1.44.07,2.31.07.72,0,1.57.1,2.53.14h3.11v3.33a3.25,3.25,0,0,1-.58,2.09,3.29,3.29,0,0,1-2,.73l-1.74.14a8.92,8.92,0,0,1-1.66.14h-.58a5.33,5.33,0,0,1-3-.86,6,6,0,0,1-2.1-2.68,11.32,11.32,0,0,1-.94-2.67c-.14-.91-.26-1.83-.36-2.74s-.17-1.67-.21-2.53S225,67.83,225,67a22.92,22.92,0,0,0,4.41-.36,10.08,10.08,0,0,0,1.81-.29c-.53-.1-1.14-.2-1.81-.29a19.51,19.51,0,0,0-2-.22,20.18,20.18,0,0,0-2.46-.14V65l-.07-.65c0-1.39-.07-2.77-.07-4.11V56.1c.91,0,1.75,0,2.52-.08s1.45-.19,2-.28a11.76,11.76,0,0,0,1.88-.29c-.58-.1-1.21-.2-1.88-.29a43.53,43.53,0,0,0-4.55-.36V50.39c0-1.49.09-3,.14-4.55l1.66-.15c.48,0,.89-.09,1.23-.14s.82-.17,1.16-.22c-.34,0-.73-.12-1.16-.22a15,15,0,0,0-2.89-.36V42.08c.05-.87.1-1.76.14-2.67V38.9a1.17,1.17,0,0,0,.08-.29,1.29,1.29,0,0,0-.36-.79q-2.82.65-5.64,1.44c-1.83.48-3.66,1-5.49,1.66a3.74,3.74,0,0,1-1.23.29c-.34,0-.6-.41-.8-1.23a17.2,17.2,0,0,0-.72-2.24l-.72-2.31,2.24-.14a16.62,16.62,0,0,0,1.81-.22c.57-.1,1.1-.19,1.59-.29l-1.74-.29a16.51,16.51,0,0,0-1.88-.21,17.34,17.34,0,0,0-2.38-.15,4.31,4.31,0,0,1-.07-.72,1.31,1.31,0,0,1,.29-.87,3.85,3.85,0,0,1,1.3-1.15,16.66,16.66,0,0,1,3.83-1.95,42.18,42.18,0,0,1,4.11-1.38,128.49,128.49,0,0,1,13.88-2.67,98.54,98.54,0,0,1,12.79-.87c.91,0,1.85,0,2.81.07a3.63,3.63,0,0,0,.73.08h.5a3.51,3.51,0,0,1,.72.07,2.06,2.06,0,0,1,2,2.17v.57c-1.11,0-2.17,0-3.18.08s-1.88.12-2.61.21l-2.38.29c.72.05,1.49.07,2.31.07l2.53.15h3.18a8.88,8.88,0,0,1-.43,2.17l-1.88.14a11,11,0,0,0-1.52.22,10.23,10.23,0,0,0-1.37.21,8.77,8.77,0,0,0,1.3.22,8.74,8.74,0,0,0,1.37.22l1.81.14a3.28,3.28,0,0,0-.15.36l-.21.8a3.28,3.28,0,0,0-.15.36c-1.15,0-2.24.05-3.25.14s-1.83.13-2.6.22S243.75,33.67,243,33.77Zm33,43.35c.63,0,1.3.08,2,.08s1.38.07,2.24.07,1.79,0,2.75.07a2,2,0,0,0-.07.51v.36a2.59,2.59,0,0,1-.07.5c-.15,1.59-.94,2.39-2.39,2.39h-.14c-1,0-1.91-.12-2.82-.22a25.65,25.65,0,0,1-2.75-.29,4,4,0,0,1-2.09-.94A5.7,5.7,0,0,1,271.59,78a10.53,10.53,0,0,1-.65-2.17c-.1-.77-.19-1.51-.29-2.24,1,0,2-.07,2.82-.07s1.61,0,2.24-.07,1.4,0,2-.07c-.62-.1-1.3-.2-2-.29s-1.45-.17-2.31-.22-1.81-.07-2.82-.07c-.1-.53-.17-1.06-.22-1.59s0-1.06-.07-1.59l-.43-5.2,1.23.14h1.44a27.15,27.15,0,0,0,4.7-.36,10.73,10.73,0,0,0,1.88-.29c-.58-.14-1.21-.26-1.88-.36s-1.33-.17-2.1-.22-1.64-.07-2.6-.07h-1.37a12.25,12.25,0,0,0-1.38.07q-.13-1.37-.21-2.67c-.05-.92-.12-1.86-.22-2.82.53.05,1.06.07,1.59.07h5c1.06,0,2-.09,2.81-.14s1.76,0,2.53-.07c-.77-.1-1.61-.2-2.53-.29s-1.75-.17-2.81-.22-2.15-.07-3.4-.07h-1.66a14.77,14.77,0,0,0-1.52.07c-.09-1.3-.19-2.58-.29-3.83s-.07-2.6-.07-3.9c-.1-1.49-.17-3-.22-4.48s0-3-.14-4.55c.63,0,1.28.07,1.95.07h5.35l2.81-.14c.92,0,1.76,0,2.53-.08L278.74,40c-.81-.09-1.75-.16-2.81-.21s-2.15-.07-3.4-.07h-2c-.68,0-1.3,0-1.88.07V38.61l-.07-.72V36.73a3.2,3.2,0,0,0,.65.08h.65c1,0,1.83,0,2.6-.08s1.52-.19,2.09-.29a10.62,10.62,0,0,0,1.95-.28,16.6,16.6,0,0,0-1.95-.37c-.57-.09-1.27-.16-2.09-.21s-1.64-.08-2.6-.08h-1.38c0-1.06,0-2.11-.07-3.17v-4c0-.29.1-.55.15-.8a2.66,2.66,0,0,1,.79-1.44,3.59,3.59,0,0,1,1.45-.8,6.55,6.55,0,0,1,1.66-.36c.62,0,1.2-.07,1.73-.07A13.36,13.36,0,0,1,279.68,26a5.3,5.3,0,0,1,.87.58c-1,0-1.95,0-2.82.07s-1.56.12-2.24.21-1.39.12-2,.22l2.24.15c.72,0,1.54,0,2.46.07s2,0,3.1.07a6.55,6.55,0,0,1,.94,1.95c.15.63.27,1.25.36,1.88s.22,1.28.37,1.95l1.08-.94a6.24,6.24,0,0,1,1.08-.87,12.85,12.85,0,0,1,7.73-3.1h.22A10.44,10.44,0,0,1,301.29,32c-.82,0-1.57.12-2.24.22a16.32,16.32,0,0,0-1.81.22c-.62.09-1.2.19-1.73.29a11.81,11.81,0,0,0,1.95.29c.58.09,1.25.19,2,.28s1.69.08,2.6.08h.36a6.33,6.33,0,0,1,.73,1.23c.24.38.48.79.72,1.22l-2.53.15c-.77.05-1.42.09-1.95.14-.68.1-1.28.17-1.81.22.58.05,1.21.07,1.88.07l2,.15h2.68a12.36,12.36,0,0,1,1,4.84,13.28,13.28,0,0,1-.72,4.19,2.18,2.18,0,0,0-.15.36l-.14.65a3.28,3.28,0,0,0-.15.36c-.77,0-1.49,0-2.16.07a16.48,16.48,0,0,0-1.74.22c-.58.1-1.11.19-1.59.29a11.38,11.38,0,0,0,1.45.22,13.11,13.11,0,0,0,1.51.21l2,.15c-.24.48-.46.94-.65,1.37s-.41.79-.65,1.23c-1.11,0-2.17,0-3.18.07s-1.83.12-2.6.22-1.59.19-2.32.29c.68,0,1.4.07,2.17.07s1.47.07,2.39.07,1.9,0,3,.07a21,21,0,0,1-1.74,2.32,15.05,15.05,0,0,1-2.09,1.87c-1.93,0-3.85,0-5.78.08a44.8,44.8,0,0,0-5.71.5c.77,0,1.61.07,2.53.07l2.75.15h5.27A24.42,24.42,0,0,1,292,59.13a13.23,13.23,0,0,1-5.28,1.16,14.57,14.57,0,0,1-3-.29,2.89,2.89,0,0,0-.58-.07.84.84,0,0,0-.5.14c-.1,0-.15.31-.15.8v2q.07.95.15,2l.14,1.88.15,1.73c-.68,0-1.3.12-1.88.22a11,11,0,0,0-1.52.22,8.84,8.84,0,0,0-1.37.21,8.74,8.74,0,0,0,1.37.22,11,11,0,0,0,1.52.22l1.88.14c.09,1.16.14,2.07.14,2.75s.07,1.13.07,1.37a25.45,25.45,0,0,1-.14,2.75l-2.75.14c-.86,0-1.61.12-2.24.22S276.7,77,276.07,77.12Zm2.82-29.84a8.71,8.71,0,0,0,1.23.22c.38,0,.82.1,1.3.14s1.08.08,1.66.08a4.33,4.33,0,0,1-.07.86V49a3.21,3.21,0,0,0,.07.65,1,1,0,0,0,1,.94,1.26,1.26,0,0,0,.43-.08,14,14,0,0,0,2.39-.94A8.64,8.64,0,0,0,289,48.15a7.25,7.25,0,0,0,1.52-1.95,6.31,6.31,0,0,0,.65-2.53l2.75-.22a9.73,9.73,0,0,1,1.08-.21,9.87,9.87,0,0,1-1.08-.22l-1.3-.15c-.44,0-.94-.07-1.52-.07a2.25,2.25,0,0,0-2.53-2.24h-.29a4.18,4.18,0,0,0-2.74,1.09,7.65,7.65,0,0,0-1.88,2.16,4.87,4.87,0,0,0-.65,2.46v.58a14.8,14.8,0,0,0-2.89.22A7.09,7.09,0,0,0,278.89,47.28Zm52.26,24.57v.22l.08.43v1a19.14,19.14,0,0,1-.15,2.31,22.47,22.47,0,0,1-.5,2.68,3,3,0,0,1-1.09,1.8,5.27,5.27,0,0,1-1.88.72c-.62.1-1.23.17-1.8.22l-1.23.15c-.58.09-1.18.16-1.81.21-1.44.15-2.79.27-4,.36a30,30,0,0,1-3.54.22H314.1a6.77,6.77,0,0,1-3.54-1,5.81,5.81,0,0,1-2.17-2.82,3.84,3.84,0,0,0-.36-.94q4.62,0,9.18-.21c-.77-.1-1.62-.2-2.53-.29s-1.76-.17-2.82-.22-2.14-.07-3.39-.07h-.73a14.89,14.89,0,0,1-.5-1.81,12,12,0,0,1-.07-1.23,6.71,6.71,0,0,1,.14-1.37,1.75,1.75,0,0,1,1.52-1.66q.8-.15,1.59-.36A8.87,8.87,0,0,1,312,69.9a1.46,1.46,0,0,0,1-.36,1.7,1.7,0,0,0,.21-.87v-.29l2.17-.14a16.48,16.48,0,0,0,1.74-.22l1.51-.29c-.48-.1-1-.19-1.59-.29a13.71,13.71,0,0,0-1.73-.22,15.4,15.4,0,0,0-2.17-.14c-.05-.82-.09-1.64-.14-2.46s-.07-1.71-.07-2.53v-.36c1.1,0,2.14-.07,3.1-.07s1.78-.07,2.46-.07l2.24-.15c-.68-.09-1.42-.19-2.24-.28L316.05,61c-1,0-2-.07-3.1-.07V44.32c1.1,0,2.14-.07,3.1-.07s1.78,0,2.46-.07,1.56,0,2.24-.08l-2.24-.29c-.68-.09-1.49-.16-2.46-.21s-1.92-.08-3-.08V41.94c0-.49,0-1,.07-1.52a5.2,5.2,0,0,1,1.16-.15c.38,0,.69-.09.94-.14L316,40l-.79-.14a2.55,2.55,0,0,0-.94-.14l-1.16-.15.07-1.3v-.51c0-.48-.07-.77-.21-.86a3.34,3.34,0,0,0-1.31-.29q-3.24-.36-4.4-2.17a6.49,6.49,0,0,1-1.09-3.32,7.44,7.44,0,0,1,.51-2.6,3.39,3.39,0,0,1,1.16-1.45,6.11,6.11,0,0,1,1.73-.87,9.94,9.94,0,0,1,2-.5c.68-.1,1.28-.17,1.81-.22,2.07-.14,4.14-.22,6.21-.22s4.15.05,6.22.15a12.57,12.57,0,0,1,2.16.29,5.14,5.14,0,0,1,1.81.58,3.38,3.38,0,0,1,1.3,1.3,5,5,0,0,1,.8,2.16,9.14,9.14,0,0,1,.14,1.52,7.06,7.06,0,0,1-.07.8,9.84,9.84,0,0,1-.15,1.44,5.19,5.19,0,0,0-.14.72,27.07,27.07,0,0,0-4.7-.36c-.91,0-1.78,0-2.6.08s-1.47.12-2.09.21-1.3.22-1.88.36a10.58,10.58,0,0,0,1.88.29,27,27,0,0,0,4.69.36c.82,0,1.62,0,2.39-.07a19.51,19.51,0,0,0,2-.22,3.33,3.33,0,0,1-3,1.74,5.24,5.24,0,0,0-1.74.36c-.24.14-.36.53-.36,1.16-.82,0-1.56.09-2.24.14l-1.66.14c-.58.1-1.08.17-1.52.22a13.63,13.63,0,0,0,1.52.07c.53,0,1.11.08,1.73.08s1.43,0,2.24.07V39q.3,5.85.29,11.78c0,1.59,0,3.18-.07,4.77l-2.31.14-1.81.15c-.58.09-1.1.17-1.59.21a15.5,15.5,0,0,0,1.59.08c.53,0,1.13.07,1.81.07s1.49,0,2.31.07c-.05.68-.07,1.35-.07,2v1.38c0,.72,0,1.42-.07,2.09a11.28,11.28,0,0,0-2.46.36l-1,.15c.29,0,.6.1.94.14a7.11,7.11,0,0,0,1.08.22,8.73,8.73,0,0,1,1.45.14,14.25,14.25,0,0,0-.08,1.45l-.07.94c0,.43,0,.91-.07,1.44v1.59c0,.44.24.65.72.65a5.86,5.86,0,0,1,2.53.51,2.55,2.55,0,0,1,1.52,2c-1.45-.14-3.11-.21-5-.21-1.2,0-2.33,0-3.39.07s-1.93.12-2.75.22-1.76.19-2.53.28c.77,0,1.62.08,2.53.08l2.75.14h6.14C329.64,71.92,330.43,71.9,331.15,71.85Zm34.92,5.71c.77,0,1.62.07,2.53.07s1.76.1,2.82.14h3.4a1.82,1.82,0,0,1-.37,1.3,2.6,2.6,0,0,1-1.3.65,17.17,17.17,0,0,1-2.74.37l-2.68.14q-7.22.28-14.45.51t-14.52.5a4.68,4.68,0,0,1-1.88-.29,2,2,0,0,1-1.08-1h3.47l2.81-.14,2.53-.15-2.53-.29c-.81-.09-1.75-.17-2.81-.21s-2.15-.08-3.4-.08h-.43a.29.29,0,0,0-.08-.21,3.71,3.71,0,0,1-.21-.58,1.73,1.73,0,0,0-.15-.65l2.32-.15a16.57,16.57,0,0,0,1.87-.21l1.74-.29c-.53-.1-1.13-.19-1.81-.29a16.64,16.64,0,0,0-1.95-.22,21.18,21.18,0,0,0-2.46-.14.75.75,0,0,1-.07-.22.53.53,0,0,0-.07-.22,7.28,7.28,0,0,1,0-3.82,27.61,27.61,0,0,1,1.3-3.62l2.38-.14a16.59,16.59,0,0,0,2-.22c.67-.09,1.27-.19,1.8-.29l-1.59-.29a13.88,13.88,0,0,0-1.73-.21l-2.17-.15c.43-.82.89-1.64,1.37-2.45S339,63,339.48,62.17c1-1.5,1.95-3,3-4.41s2-3,3-4.48c1.06-.05,2-.07,2.89-.07s1.71-.08,2.38-.08,1.54-.09,2.17-.14a19.59,19.59,0,0,0-2-.22c-.63-.09-1.37-.17-2.24-.21s-1.74-.08-2.75-.08q2-3,4-6l4-6.07,2.17-.15a14.07,14.07,0,0,0,1.74-.21l1.58-.29a186.65,186.65,0,0,0-2.81-.44l-1.88-.14a4,4,0,0,1,.29-.51,6.24,6.24,0,0,1,.5-.72A2.35,2.35,0,0,0,356,37a2.65,2.65,0,0,0-1-.21h-.87c-2.17,0-4.34.07-6.5.07h-6.51a8.88,8.88,0,0,0-1.15.07l-1.16.14a2.55,2.55,0,0,1-3-1.8l2.45-.15a20,20,0,0,0,2-.21l1.8-.29a15.51,15.51,0,0,0-1.95-.36,19.83,19.83,0,0,0-2.09-.22c-.78-.05-1.62-.07-2.53-.07a13.69,13.69,0,0,1-.15-2.75h5.78q2.9-.07,5.78-.22c-.77-.09-1.61-.19-2.53-.28s-1.75-.17-2.81-.22-2.12-.07-3.33-.07h-1.52a12.07,12.07,0,0,0-1.37.07l.22-1.95c.29-1.49,1.37-2.31,3.25-2.46.67-.05,1.32-.07,1.95-.07s1.28,0,2-.07q6.72-.36,13.3-.65t13.22.07a10.54,10.54,0,0,1,3.25.79,3.77,3.77,0,0,1,2.17,2.46l-2.82.15c-.87,0-1.64.12-2.31.21s-1.47.12-2.1.22c.63.05,1.33.07,2.1.07l2.31.15h3a5.64,5.64,0,0,1,.08,1.08l-.15.72a3.51,3.51,0,0,1-.07.72,4.13,4.13,0,0,0-.65-.07h-.65c-.92,0-1.78,0-2.6.07a19.73,19.73,0,0,0-2,.22q-1.08.15-1.95.36a10.84,10.84,0,0,0,1.95.29c.58.1,1.26.19,2,.29s1.68.07,2.6.07h.94a10.16,10.16,0,0,1-1,2.24q-3.25,5.06-6.72,10c-1.11,0-2.15,0-3.11.08s-1.78.12-2.46.21l-2.31.29c.63.05,1.32.07,2.1.07s1.44.08,2.31.08,1.88,0,2.89.07c-1.4,2-2.82,4-4.27,5.92s-2.89,3.9-4.33,5.93a1.72,1.72,0,0,1-.29.36l-2,.14a11.09,11.09,0,0,0-1.59.22c-.53.1-1,.19-1.44.29.33,0,.72.12,1.15.22l1.3.14,1.74.15c-.34.43-.65.86-.94,1.3l-.87,1.3c-1,0-1.86.09-2.67.14l-2.1.15c-.67.09-1.3.16-1.88.21.53,0,1.11.07,1.74.07l1.87.15h2.46q-2.39,3.47-4.41,7.08a2.5,2.5,0,0,0,.94.22h.8c3.18,0,6.36,0,9.54.14s6.35.22,9.53.51a4.1,4.1,0,0,1,3.47,2.45c-.77,0-1.49,0-2.17.08a16.73,16.73,0,0,0-1.73.21l-1.59.29c.53.1,1.11.19,1.73.29a16.57,16.57,0,0,0,1.88.22l2.31.14a8.24,8.24,0,0,1,.58,2.46c-1.2,0-2.33,0-3.39.07s-1.93.12-2.75.22S366.84,77.46,366.07,77.56Zm42.7,0c.77,0,1.62.07,2.53.07s1.76.1,2.82.14h3.4a1.82,1.82,0,0,1-.37,1.3,2.6,2.6,0,0,1-1.3.65,17.17,17.17,0,0,1-2.74.37l-2.68.14q-7.21.28-14.45.51t-14.52.5a4.68,4.68,0,0,1-1.88-.29,2,2,0,0,1-1.08-1H382l2.81-.14,2.53-.15-2.53-.29c-.81-.09-1.75-.17-2.81-.21s-2.15-.08-3.4-.08h-.43a.29.29,0,0,0-.08-.21,3.71,3.71,0,0,1-.21-.58,1.73,1.73,0,0,0-.15-.65l2.32-.15a16.57,16.57,0,0,0,1.87-.21l1.74-.29c-.53-.1-1.13-.19-1.81-.29a16.64,16.64,0,0,0-1.95-.22,21.18,21.18,0,0,0-2.46-.14.75.75,0,0,1-.07-.22.53.53,0,0,0-.07-.22,7.28,7.28,0,0,1,0-3.82,27.61,27.61,0,0,1,1.3-3.62l2.38-.14a16.59,16.59,0,0,0,2-.22c.67-.09,1.27-.19,1.8-.29l-1.59-.29a13.88,13.88,0,0,0-1.73-.21l-2.17-.15c.43-.82.89-1.64,1.37-2.45s1.06-1.71,1.59-2.53c1-1.5,1.95-3,3-4.41s2-3,3-4.48c1.06-.05,2-.07,2.89-.07s1.71-.08,2.38-.08,1.54-.09,2.17-.14a19.59,19.59,0,0,0-1.95-.22c-.63-.09-1.37-.17-2.24-.21s-1.73-.08-2.75-.08q2-3,4-6l4-6.07,2.17-.15a14.07,14.07,0,0,0,1.74-.21l1.59-.29a9.08,9.08,0,0,0-1.38-.22,8.81,8.81,0,0,0-1.44-.22l-1.88-.14a4,4,0,0,1,.29-.51,6.24,6.24,0,0,1,.5-.72,2.35,2.35,0,0,0,.44-.94,2.65,2.65,0,0,0-1-.21h-.87c-2.17,0-4.34.07-6.5.07h-6.51a8.88,8.88,0,0,0-1.15.07l-1.16.14a2.55,2.55,0,0,1-3-1.8l2.45-.15a20,20,0,0,0,2-.21l1.8-.29a15.51,15.51,0,0,0-1.95-.36,19.83,19.83,0,0,0-2.09-.22c-.78-.05-1.62-.07-2.53-.07a13.69,13.69,0,0,1-.15-2.75h5.78q2.89-.07,5.78-.22c-.77-.09-1.61-.19-2.53-.28s-1.75-.17-2.81-.22-2.12-.07-3.33-.07h-1.51a12.13,12.13,0,0,0-1.38.07l.22-1.95c.29-1.49,1.37-2.31,3.25-2.46.67-.05,1.33-.07,2-.07s1.28,0,1.95-.07q6.72-.36,13.3-.65t13.22.07a10.54,10.54,0,0,1,3.25.79,3.75,3.75,0,0,1,2.17,2.46l-2.82.15c-.87,0-1.64.12-2.31.21s-1.47.12-2.1.22c.63.05,1.33.07,2.1.07l2.31.15h3a5.64,5.64,0,0,1,.08,1.08l-.15.72a3.51,3.51,0,0,1-.07.72,4.13,4.13,0,0,0-.65-.07H416c-.92,0-1.78,0-2.6.07a19.73,19.73,0,0,0-2,.22q-1.08.15-1.95.36a10.84,10.84,0,0,0,1.95.29c.58.1,1.26.19,2,.29s1.68.07,2.6.07h.94a10.16,10.16,0,0,1-1,2.24q-3.26,5.06-6.72,10c-1.11,0-2.15,0-3.11.08s-1.78.12-2.46.21l-2.31.29c.63.05,1.33.07,2.1.07s1.44.08,2.31.08,1.88,0,2.89.07c-1.4,2-2.82,4-4.26,5.92s-2.9,3.9-4.34,5.93a1.72,1.72,0,0,1-.29.36l-1.95.14a11.09,11.09,0,0,0-1.59.22c-.53.1-1,.19-1.44.29.33,0,.72.12,1.15.22l1.3.14,1.74.15c-.34.43-.65.86-.94,1.3l-.87,1.3c-1,0-1.85.09-2.67.14l-2.1.15c-.67.09-1.3.16-1.88.21.53,0,1.11.07,1.74.07l1.87.15h2.46q-2.38,3.47-4.41,7.08a2.5,2.5,0,0,0,.94.22h.8c3.18,0,6.36,0,9.54.14s6.35.22,9.53.51a4.1,4.1,0,0,1,3.47,2.45c-.77,0-1.49,0-2.17.08a16.73,16.73,0,0,0-1.73.21l-1.59.29c.53.1,1.11.19,1.73.29a16.57,16.57,0,0,0,1.88.22l2.32.14a8.52,8.52,0,0,1,.57,2.46c-1.2,0-2.33,0-3.39.07s-1.93.12-2.75.22S409.54,77.46,408.77,77.56Zm50.65-2.89V76c.05.29.1.63.15,1v.29a3.9,3.9,0,0,1-.8,2.6,3.82,3.82,0,0,1-2.6,1.08,27.58,27.58,0,0,1-3.54.22c-1,0-1.93,0-2.89-.14a13.07,13.07,0,0,1-2.89-.65,1.65,1.65,0,0,1-1.09-1.66,3,3,0,0,1-.07-.58v-.44a2.22,2.22,0,0,0-.07-.57l1.95-.15a13.45,13.45,0,0,0,1.66-.22l1.38-.28a11.38,11.38,0,0,0-1.45-.22,11.09,11.09,0,0,0-1.59-.22l-2-.14c-.05-.87-.07-1.74-.07-2.6a23.44,23.44,0,0,1,.14-2.68,3.87,3.87,0,0,0,.07-.79V69c0-.58-.26-.87-.79-.87h-1.16c-2.84.15-5.78.36-8.81.65a2.58,2.58,0,0,0-.87.36c-.15.1-.22.32-.22.65v1.09a6.11,6.11,0,0,0,.07.86l-1.51.15c-.48.05-.89.09-1.23.14a10.92,10.92,0,0,1-1.08.22,10.92,10.92,0,0,1,1.08.22l1.23.14,1.51.15v1.22a11.2,11.2,0,0,0,.08,1.3v.37a5,5,0,0,1-.65,2.6A4,4,0,0,1,431,79.72a34.27,34.27,0,0,1-3.75.94,15.72,15.72,0,0,1-3.69.44,2.5,2.5,0,0,1-1.73-.44,3.28,3.28,0,0,1-.58-1.66,2.4,2.4,0,0,1-.14-.79v-.36a4.58,4.58,0,0,0,.07-.87q4.69,0,9.46-.22l-2.53-.29c-.81-.09-1.75-.17-2.81-.21s-2.15-.08-3.4-.08h-.65a6.32,6.32,0,0,0,.07-.94,5.07,5.07,0,0,0-.07-.86c-.1-.92-.17-1.81-.22-2.68s-.09-1.83-.14-2.74c1.06,0,2-.07,2.89-.07s1.61-.08,2.24-.08,1.47-.09,2.09-.14c-.62-.1-1.32-.17-2.09-.22s-1.45-.17-2.31-.21-1.81-.08-2.82-.08c-.05-1.25-.07-2.48-.07-3.68s.05-2.41.14-3.61l.22-4.12c1.25,0,2.48,0,3.68-.15a30,30,0,0,0,3.62-.5,16.1,16.1,0,0,0-1.88-.36c-.63-.1-1.33-.17-2.1-.22s-1.64-.07-2.6-.07h-.58a54.69,54.69,0,0,1,1.52-8.38c1.2,0,2.41,0,3.61-.15a32.12,32.12,0,0,0,3.62-.5,17.2,17.2,0,0,0-2-.37c-.57-.09-1.27-.16-2.09-.21s-1.61-.08-2.53-.08h-.36a46.68,46.68,0,0,1,3.25-8.3.21.21,0,0,1,.07-.15c1.5,0,3,0,4.41-.07s3-.12,4.48-.22l-2.46-.29c-.77-.09-1.66-.17-2.67-.21s-2.12-.08-3.32-.08a28.67,28.67,0,0,1,1.73-2.89,24,24,0,0,1,2.1-2.74H435l2.82-.15c.91,0,1.75,0,2.53-.07l-2.53-.29c-.82-.09-1.76-.17-2.82-.21s-2.14-.08-3.4-.08h-.14a16.88,16.88,0,0,1,4.84-3.9,15.86,15.86,0,0,1,6-1.88,11.2,11.2,0,0,1,1.3-.07,12.26,12.26,0,0,1,7.08,2.24,14,14,0,0,1,3,3A20.5,20.5,0,0,1,456,32.9a.43.43,0,0,1,.15.29l.14.29-2.24.15a16.73,16.73,0,0,0-1.73.21c-.63.1-1.18.2-1.66.29.53.1,1.13.19,1.8.29a16.64,16.64,0,0,0,1.95.22l2.39.14c.19.48.36,1,.5,1.45a7.92,7.92,0,0,1,.44,1.44l-2.68.15c-.77,0-1.44.12-2,.21s-1.3.12-1.88.22c.58,0,1.23.07,1.95.07s1.35.07,2.17.07,1.71,0,2.67.08a53.37,53.37,0,0,1,1.38,8.31q.36,4.11.5,8.31c-1.2,0-2.33,0-3.39.07s-1.93.12-2.75.21l-2.53.29c.77.05,1.62.08,2.53.08l2.75.14h3.39c.05.87.07,1.73.07,2.6v2.75c-.91,0-1.78,0-2.6.07a19.51,19.51,0,0,0-2,.22,15.51,15.51,0,0,0-2,.36,11.81,11.81,0,0,0,2,.29c.58.09,1.25.19,2,.29s1.69.07,2.6.07V63c0,1.35-.09,2.72-.14,4.12s-.12,2.72-.22,4.12c-1.1,0-2.14,0-3.1.07s-1.71.12-2.39.22-1.56.19-2.24.29c.68,0,1.42.07,2.24.07s1.47.09,2.39.14h3.1v.65L459.42,74ZM446.2,53.5a5.1,5.1,0,0,1-.07-.87v-.51a5,5,0,0,0-.08-.86l2.24-.15L450.1,51c.63-.1,1.18-.2,1.66-.29-.48-.1-1-.19-1.66-.29a16.57,16.57,0,0,0-1.88-.22A16.91,16.91,0,0,0,446,50c0-.68-.05-1.69-.14-3a29.56,29.56,0,0,0-.58-4,12.33,12.33,0,0,0-1.3-3.62,2.64,2.64,0,0,0-2.39-1.59,4.87,4.87,0,0,0-2.89.94,8.72,8.72,0,0,0-2.16,2.24,15.73,15.73,0,0,0-1.45,3,16.47,16.47,0,0,0-.79,2.89,49.81,49.81,0,0,0-.65,6.07c-.87,0-1.67.09-2.39.14a16.57,16.57,0,0,0-1.88.22,16.25,16.25,0,0,0-1.66.21,16.19,16.19,0,0,0,1.66.08c.53,0,1.16.07,1.88.07s1.49,0,2.31.07V56c0,.78,0,1.57-.07,2.39a2.59,2.59,0,0,0,.15,1.23,1,1,0,0,0,.57.14,4.32,4.32,0,0,0,.73-.07c1.25-.19,2.5-.34,3.75-.43s2.51-.24,3.76-.29h1.37l1.38-.15c.67,0,1-.36,1-1.08a11.33,11.33,0,0,1-.07-1.3v-1C446.17,55,446.2,54.36,446.2,53.5Z" transform="translate(0.26 -1.64)"/><g class="cls-3"><path class="cls-2" d="M31.35,61.65a7.42,7.42,0,0,0-11.46.69,7.33,7.33,0,0,0-1.41,4.08,7.43,7.43,0,1,0,12.87-4.77Zm-8.17,7.57a3.68,3.68,0,0,1-.65-4.07,3.72,3.72,0,1,1,.65,4.07ZM28.23,48a4.2,4.2,0,0,0,2.39-3.47A3.7,3.7,0,0,0,30.36,43a3.91,3.91,0,0,0-.83-1.29,7.5,7.5,0,0,0-5.23-2.09,8.33,8.33,0,0,0-4.27.92A4.23,4.23,0,0,0,18.37,42a4.15,4.15,0,0,0-.74,2.06c-.1,2.64,2.62,4.74,6.32,4.88A8.37,8.37,0,0,0,28.23,48Zm-4.14-2.79a4.16,4.16,0,0,1-2.69-.92.16.16,0,0,1-.06-.08,3.28,3.28,0,0,1,1.31-.74,3.52,3.52,0,0,1,1.51-.12,4,4,0,0,1,1.48.23,3.77,3.77,0,0,1,1.27.77,3.43,3.43,0,0,1-1.31.75A3.5,3.5,0,0,1,24.09,45.22Zm14.17,7.49a1.86,1.86,0,0,1,.49,1.34,1.83,1.83,0,0,1-.59,1.29,1.86,1.86,0,0,1-2.62-.1l-2.73,2.52a5.57,5.57,0,0,0,8.84-6.7,5.54,5.54,0,0,0-2.43-2.14,5.42,5.42,0,0,0-3.2-.44,5.53,5.53,0,0,0-2.91,1.41l2.53,2.72a1.86,1.86,0,0,1,2.62.1Z" transform="translate(0.26 -1.64)"/><path class="cls-2" d="M15.8,55.8l2.53,2.72L21.05,56l-2.52-2.72Z" transform="translate(0.26 -1.64)"/><path class="cls-2" d="M50.18,84.71a5.58,5.58,0,0,0-6-1.44,5.54,5.54,0,0,0-3.63,5,5.58,5.58,0,0,0,3.24,5.28,5.57,5.57,0,0,0,6.41-8.85Zm-5.45,5.05a1.88,1.88,0,0,1-.47-1,1.78,1.78,0,0,1,.15-1.07,1.86,1.86,0,0,1,.71-.81,1.82,1.82,0,0,1,1-.27,1.84,1.84,0,0,1,1,.35,1.92,1.92,0,0,1,.66.86,1.89,1.89,0,0,1,.06,1.08,1.91,1.91,0,0,1-.54.93,1.87,1.87,0,0,1-2.63-.1ZM69.61,92A5.56,5.56,0,0,0,66,82.37a5.57,5.57,0,0,0-4.3,9.35,5.57,5.57,0,0,0,7.87.3ZM64.46,89.2a1.88,1.88,0,0,1-.47-1,1.86,1.86,0,0,1,.15-1.07,1.81,1.81,0,0,1,.71-.81,1.86,1.86,0,0,1,1.05-.27,1.82,1.82,0,0,1,1,.35,1.92,1.92,0,0,1,.65.86,1.78,1.78,0,0,1,.06,1.07,1.83,1.83,0,0,1-.54.94,1.87,1.87,0,0,1-2.63-.1ZM58.35,77.14A3.71,3.71,0,0,0,56,70.7a3.73,3.73,0,0,0-3.51,2.16,3.69,3.69,0,0,0,.65,4.08,3.72,3.72,0,0,0,5.24.2ZM57.23,37.67a5.57,5.57,0,0,0-7.87-.3l2.52,2.72a1.88,1.88,0,0,1,1-.47,1.88,1.88,0,0,1,1.88.86A1.94,1.94,0,0,1,55,41.53a1.9,1.9,0,0,1-.35,1,2,2,0,0,1-.86.65,1.81,1.81,0,0,1-1.08.06,1.84,1.84,0,0,1-.93-.54l-2.72,2.52a5.57,5.57,0,1,0,8.17-7.57ZM42.09,21.32a3.71,3.71,0,0,0-.2,5.25l5.45-5.05a3.73,3.73,0,0,0-5.25-.2Z" transform="translate(0.26 -1.64)"/><path class="cls-2" d="M30.35,87.89l2.52,2.73,2.73-2.53-2.53-2.72Z" transform="translate(0.26 -1.64)"/><path class="cls-2" d="M61.69,37c.16-.15.22-.18,1-.12a4.4,4.4,0,0,0,4.92-2.79,4.44,4.44,0,0,0,.26-2c0-.76,0-.81.2-1s.23-.18,1-.12a4.59,4.59,0,0,0,2-.13,4.48,4.48,0,0,0,1.77-1,1.86,1.86,0,0,0,.1-2.62L66.6,20.46a1.89,1.89,0,0,0-1.29-.6,1.83,1.83,0,0,0-1.33.5c-.17.15-.23.18-1,.12a4.46,4.46,0,0,0-2,.11,4.41,4.41,0,0,0-3.15,4.69c0,.76,0,.81-.2,1s-.23.18-1,.12a4.59,4.59,0,0,0-2,.12,4.5,4.5,0,0,0-1.77,1,1.86,1.86,0,0,0-.1,2.62l6.31,6.81a1.89,1.89,0,0,0,1.29.6A1.91,1.91,0,0,0,61.69,37Zm-.88-3.68-3-3.26A4.06,4.06,0,0,0,60.13,29a4.47,4.47,0,0,0,1.12-1.69,4.54,4.54,0,0,0,.27-2c0-.76,0-.82.2-1s.23-.18,1-.12A5.53,5.53,0,0,0,64.85,24l3,3.27a4.12,4.12,0,0,0-2.36,1.1,4.65,4.65,0,0,0-1.11,1.69,4.59,4.59,0,0,0-.28,2c0,.76,0,.81-.2,1s-.22.18-1,.12a5.73,5.73,0,0,0-2.14.14Z" transform="translate(0.26 -1.64)"/><path class="cls-2" d="M16,17.73A55.71,55.71,0,0,0,93,98.17c1.09-1,2-1.88,2.74-2.75a1.9,1.9,0,0,0,.48-1.26,1.81,1.81,0,0,0-.5-1.25l-5.06-5.46a1.87,1.87,0,0,0-.62-.45,1.93,1.93,0,0,0-.75-.15,1.9,1.9,0,0,0-.75.16,1.87,1.87,0,0,0-.62.45c-.38.42-.79.8-1.19,1.21l-7.51-8.11L82,78a5.58,5.58,0,0,0,.3-7.88A5.43,5.43,0,0,0,80.76,69l3-2.75a5.58,5.58,0,0,0-7.58-8.18l-2.72,2.53a1.87,1.87,0,0,1-2.63-.1l-1.26-1.36a1.9,1.9,0,0,1-.49-1.34,1.87,1.87,0,0,1,.59-1.29,5.57,5.57,0,0,0,.3-7.87l-1.26-1.36.23-.22A5.57,5.57,0,0,0,76.63,40L95.94,22.06a1.86,1.86,0,0,0,.1-2.62,55.82,55.82,0,0,0-75.78-5.53c-.51.39-1,.82-1.57,1.29l0,0L15.94,17.7Zm-.18,73.53a52.05,52.05,0,0,1,2.71-70.8L21,23.18a48.35,48.35,0,0,0-2.51,65.55ZM23.55,25.9l29,31.3-31.3,29a44.63,44.63,0,0,1,2.31-60.3Zm31.52,34,29,31.29a44.63,44.63,0,0,1-60.3-2.29ZM91.85,94.16c-.41.41-.85.83-1.34,1.29A52.06,52.06,0,0,1,18.31,94L21,91.46A48.33,48.33,0,0,0,88,92.72c.46-.42.9-.85,1.34-1.29Zm-24.62-43a1.87,1.87,0,0,1-.1,2.63,5.57,5.57,0,0,0-.3,7.87l1.26,1.36a5.57,5.57,0,0,0,7.87.3l2.73-2.52a1.85,1.85,0,1,1,2.52,2.72L73,71.13l2.52,2.72,1.36-1.26a1.91,1.91,0,0,1,1.34-.5,1.89,1.89,0,0,1,1.29.6,1.86,1.86,0,0,1-.1,2.62l-2.73,2.53L57.79,57.4,66,49.83Zm5.65-10.3a1.9,1.9,0,0,1,.49,1.34,1.86,1.86,0,0,1-3.22,1.19,1.86,1.86,0,0,0-2.62-.1L55.27,54.68l-29-31.27c.44-.37.85-.76,1.31-1.11a44.74,44.74,0,0,1,59,3.38L73,38.27a1.84,1.84,0,0,0-.1,2.62ZM22.56,16.83A52.09,52.09,0,0,1,92,20.62L89.3,23.15a48.48,48.48,0,0,0-64-3.78c-.53.41-1,.87-1.55,1.31l-2.56-2.76C21.67,17.53,22.12,17.17,22.56,16.83Z" transform="translate(0.26 -1.64)"/><path class="cls-2" d="M85.5,54.52,88,57.24l2.73-2.52L88.22,52Z" transform="translate(0.26 -1.64)"/><path class="cls-2" d="M94.53,58.8l2.53,2.73L99.78,59l-2.52-2.72Z" transform="translate(0.26 -1.64)"/><path class="cls-2" d="M91.15,44.22l2.52,2.72,2.73-2.52L93.87,41.7Z" transform="translate(0.26 -1.64)"/></g></svg>