<svg width="770" height="578" viewBox="0 0 770 578" fill="none" xmlns="http://www.w3.org/2000/svg">
<path d="M379.822 541.393L47.7593 344.873C37.191 338.939 28.1243 329.171 38.423 322.794L371.679 130.589C376.684 127.488 384.268 125.465 389.35 128.412L737.929 330.886C748.498 337.032 750.403 354.198 739.854 360.344L423.5 541.027C416.876 544.873 409.367 546.93 401.709 546.994C394.052 547.058 386.509 545.128 379.822 541.393V541.393Z" fill="#745C5B"/>
<path style="mix-blend-mode:multiply" opacity="0.68" d="M353.334 527.772C353.334 527.772 554.901 410.977 558.385 408.569L224.07 267.286L84.7 362.945C89.243 366.279 348.752 524.477 353.334 527.772Z" fill="url(#paint0_linear_8_77)"/>
<path d="M404.423 214.65C294.525 214.65 205.552 267.807 205.552 333.313C205.552 352.773 213.386 371.134 227.266 387.26C227.266 387.26 233.772 402.673 227.266 410.997C221.144 418.896 213.521 425.427 203.723 428.028C190.248 431.593 175.984 430.437 162.47 433.808C143.066 438.933 128.34 456.62 141.545 475.887C146.417 482.65 153.021 487.975 160.661 491.3C182.471 500.664 202.164 488.371 217.852 473.69C228.729 463.517 239.027 447.777 254.312 444.251C274.428 439.627 336.663 445.041 336.663 445.041C358.942 449.795 381.663 452.165 404.443 452.112C514.283 452.112 603.314 398.936 603.314 333.352C603.314 267.768 514.264 214.65 404.423 214.65Z" fill="#FABF7E"/>
<path d="M136.502 444.578L136.579 462.67L154.424 453.634L136.502 444.578Z" fill="#FABF7E"/>
<path opacity="0.33" d="M404.423 214.65C294.525 214.65 205.552 267.807 205.552 333.313C205.552 352.773 213.386 371.134 227.266 387.26C227.266 387.26 233.772 402.673 227.266 410.997C221.144 418.896 213.521 425.427 203.723 428.028C190.248 431.593 175.984 430.437 162.47 433.808C143.066 438.933 128.34 456.62 141.545 475.887C146.417 482.65 153.021 487.975 160.661 491.3C182.471 500.664 202.164 488.371 217.852 473.69C228.729 463.517 239.027 447.777 254.312 444.251C274.428 439.627 336.663 445.041 336.663 445.041C358.942 449.795 381.663 452.165 404.443 452.112C514.283 452.112 603.314 398.936 603.314 333.352C603.314 267.768 514.264 214.65 404.423 214.65Z" fill="black"/>
<path opacity="0.33" d="M136.502 444.578L136.579 462.67L154.424 453.634L136.502 444.578Z" fill="black"/>
<path d="M404.423 198.62C294.583 198.62 205.551 251.796 205.551 317.38C205.551 336.839 213.386 355.2 227.265 371.326C227.265 371.326 233.772 386.74 227.265 395.063C221.144 402.962 213.521 409.494 203.723 412.095C190.248 415.659 175.983 414.503 162.47 417.875C143.066 422.807 128.34 440.532 141.564 459.645C146.411 466.463 153.009 471.842 160.66 475.212C182.471 484.576 202.163 472.284 217.852 457.603C228.728 447.43 239.027 431.689 254.312 428.163C274.428 423.539 336.663 428.953 336.663 428.953C358.942 433.707 381.663 436.077 404.443 436.024C514.283 436.024 603.314 382.848 603.314 317.264C603.314 251.68 514.264 198.62 404.423 198.62Z" fill="#FABF7E"/>
<path d="M408.523 419.512C506.907 419.512 586.663 371.336 586.663 311.908C586.663 252.48 506.907 204.304 408.523 204.304C310.14 204.304 230.384 252.48 230.384 311.908C230.384 371.336 310.14 419.512 408.523 419.512Z" fill="#F6D6A7"/>
<path d="M408.524 403.54C362.324 403.54 318.78 392.578 285.824 372.714C251.001 351.674 231.808 323.063 231.808 292.16C231.808 261.256 251.058 232.645 285.824 211.606C318.78 191.703 362.362 180.779 408.524 180.779C454.685 180.779 498.267 191.742 531.223 211.606C566.066 232.587 585.2 261.198 585.2 292.102C585.2 323.006 565.95 351.617 531.185 372.656C498.267 392.578 454.685 403.54 408.524 403.54ZM408.524 204.323C325.537 204.323 255.447 244.513 255.447 292.102C255.447 339.691 325.556 379.881 408.524 379.881C491.491 379.881 561.6 339.691 561.6 292.102C561.6 244.513 491.51 204.323 408.524 204.323V204.323Z" fill="#FDB86A"/>
<path d="M487.583 267.286C496.737 267.286 504.158 263.077 504.158 257.884C504.158 252.692 496.737 248.482 487.583 248.482C478.43 248.482 471.009 252.692 471.009 257.884C471.009 263.077 478.43 267.286 487.583 267.286Z" fill="#E04A31"/>
<path d="M369.908 261.641C379.062 261.641 386.482 257.432 386.482 252.239C386.482 247.047 379.062 242.837 369.908 242.837C360.754 242.837 353.334 247.047 353.334 252.239C353.334 257.432 360.754 261.641 369.908 261.641Z" fill="#E04A31"/>
<path d="M437.033 248.463C446.186 248.463 453.607 244.253 453.607 239.061C453.607 233.868 446.186 229.659 437.033 229.659C427.879 229.659 420.458 233.868 420.458 239.061C420.458 244.253 427.879 248.463 437.033 248.463Z" fill="#E04A31"/>
<path d="M406.945 356.029C416.099 356.029 423.519 351.819 423.519 346.627C423.519 341.434 416.099 337.224 406.945 337.224C397.791 337.224 390.371 341.434 390.371 346.627C390.371 351.819 397.791 356.029 406.945 356.029Z" fill="#E04A31"/>
<path d="M305.844 292.718C314.998 292.718 322.418 288.509 322.418 283.316C322.418 278.124 314.998 273.914 305.844 273.914C296.69 273.914 289.27 278.124 289.27 283.316C289.27 288.509 296.69 292.718 305.844 292.718Z" fill="#E04A31"/>
<path d="M344.46 343.621C353.613 343.621 361.034 339.412 361.034 334.219C361.034 329.026 353.613 324.817 344.46 324.817C335.306 324.817 327.885 329.026 327.885 334.219C327.885 339.412 335.306 343.621 344.46 343.621Z" fill="#E04A31"/>
<path d="M508.065 305.28C517.219 305.28 524.639 301.071 524.639 295.878C524.639 290.686 517.219 286.476 508.065 286.476C498.912 286.476 491.491 290.686 491.491 295.878C491.491 301.071 498.912 305.28 508.065 305.28Z" fill="#E04A31"/>
<path d="M408.523 299.365C417.677 299.365 425.098 295.156 425.098 289.963C425.098 284.771 417.677 280.561 408.523 280.561C399.37 280.561 391.949 284.771 391.949 289.963C391.949 295.156 399.37 299.365 408.523 299.365Z" fill="#E04A31"/>
<path d="M462.135 346.395C471.288 346.395 478.709 342.186 478.709 336.993C478.709 331.801 471.288 327.591 462.135 327.591C452.981 327.591 445.56 331.801 445.56 336.993C445.56 342.186 452.981 346.395 462.135 346.395Z" fill="#E04A31"/>
<path d="M430.257 267.286L438.9 261.641C438.9 261.641 470.605 265.167 465.253 292.102L453.607 295.955C453.607 295.955 464.83 274.454 430.257 267.286Z" fill="#9FC359"/>
<path d="M513.128 308.382L519.865 316.205C519.865 316.205 520.616 348.11 493.223 346.415L487.949 335.356C487.949 335.356 510.664 343.64 513.128 308.382Z" fill="#9FC359"/>
<path d="M375.702 312.293L365.384 311.985C365.384 311.985 341.36 290.984 361.111 271.93L372.815 275.494C372.815 275.494 351.389 286.669 375.702 312.293Z" fill="#9FC359"/>
<path d="M388.85 338.612L389.62 348.9C389.62 348.9 371.256 374.987 350.254 357.32L352.583 345.297C352.583 345.297 365.885 365.489 388.85 338.612Z" fill="#9FC359"/>
<path d="M334.777 269.271L324.536 267.942C324.536 267.942 302.687 244.687 324.208 227.655L335.508 232.356C335.508 232.356 313.082 241.392 334.777 269.271Z" fill="#9FC359"/>
<path d="M308 296.129L314.738 303.951C314.738 303.951 315.488 335.857 288.096 334.161L282.821 323.102C282.821 323.102 305.536 331.387 308 296.129Z" fill="#9FC359"/>
<path d="M475.071 217.097L481.808 224.919C481.808 224.919 482.559 256.825 455.166 255.129L449.892 244.07C449.892 244.07 472.607 252.393 475.071 217.097Z" fill="#9FC359"/>
<path d="M407.272 307.785C403.996 303.431 399.179 300.497 393.811 299.584C388.442 298.67 382.927 299.847 378.397 302.872C371.679 307.034 367.887 314.76 369.889 321.773C364.887 322.45 360.198 324.596 356.414 327.938C354.164 330.337 352.551 333.262 351.72 336.446C350.889 339.629 350.869 342.97 351.659 346.164C354.45 359.882 373.392 363.177 384.268 357.724C390.428 354.584 385 345.317 378.84 348.438C375.56 349.893 371.848 350.038 368.464 348.842C364.287 347.667 361.861 346.01 361.958 341.251C362.112 333.429 370.293 332.504 376.472 331.618C377.316 331.556 378.121 331.239 378.781 330.71C379.441 330.18 379.925 329.462 380.168 328.651C380.836 328.227 381.4 327.659 381.822 326.99C382.243 326.32 382.51 325.566 382.604 324.78C382.698 323.994 382.616 323.198 382.365 322.448C382.113 321.698 381.698 321.013 381.15 320.443C377.165 316.262 383.903 311.715 387.425 310.579C392.738 308.883 396.434 311.503 399.668 315.472C404.038 320.751 411.604 313.103 407.272 307.785Z" fill="#F88F58"/>
<path d="M428.582 231.2C427.603 226.95 425.3 223.12 422.007 220.264C418.713 217.407 414.599 215.671 410.256 215.305C401.208 214.438 393.143 218.677 387.04 224.938C382.343 221.278 377.088 218.58 370.793 219.293C362.996 220.502 355.853 224.359 350.562 230.217C345.768 235.207 353.353 242.818 358.165 237.828C361.349 234.223 365.508 231.62 370.139 230.333C375.413 229.1 378.994 231.971 382.767 235.342C383.336 235.875 384.017 236.272 384.76 236.506C385.503 236.739 386.289 236.802 387.06 236.691C387.96 237.074 388.965 237.138 389.907 236.872C390.848 236.605 391.671 236.025 392.238 235.227C398.282 227.848 414.837 219.235 418.225 234.051C419.765 240.718 430.122 237.866 428.582 231.2Z" fill="#F88F58"/>
<path d="M531.781 262.74C523.273 250.948 507.43 251.989 496.226 258.886C490.451 262.528 495.765 271.833 501.655 268.173C507.546 264.512 514.822 262.258 520.77 266.67C525.024 269.83 526.738 277.652 520.539 279.964C519.615 280.324 518.799 280.917 518.17 281.684C517.541 282.452 517.12 283.369 516.948 284.346C516.776 285.324 516.858 286.33 517.187 287.266C517.516 288.203 518.081 289.039 518.826 289.694C520.172 292.907 520.998 296.315 521.271 299.789C521.483 305.088 518.441 307.207 514.264 309.692C507.141 313.97 498.71 312.871 494.051 305.569C490.336 299.789 481.038 305.145 484.773 311.003C488.097 316.432 493.363 320.39 499.499 322.072C505.635 323.754 512.181 323.034 517.806 320.058C523.273 317.206 529.067 313.334 531.088 307.226C533.244 300.656 531.512 293.258 529.163 286.861C532.531 283.895 534.667 279.773 535.152 275.309C535.636 270.845 534.434 266.361 531.781 262.74Z" fill="#F88F58"/>
<path d="M354.412 300.56C349.33 290.04 342.072 281.293 329.387 283.22C321.859 284.267 315.022 288.172 310.291 294.125C300.261 285.05 281.743 287.093 272.926 298.113C268.653 303.469 276.199 311.118 280.53 305.723C285.631 299.346 301.705 294.819 305.324 305.126C305.726 306.104 306.387 306.953 307.237 307.581C308.087 308.209 309.093 308.591 310.145 308.686C311.197 308.782 312.255 308.586 313.204 308.122C314.153 307.657 314.956 306.941 315.527 306.051C315.818 305.653 316.058 305.219 316.239 304.76C317.467 301.927 319.39 299.451 321.83 297.562C324.27 295.672 327.147 294.43 330.195 293.952C338.627 292.333 342.015 299.5 345.152 305.974C348.29 312.448 357.415 306.725 354.412 300.56Z" fill="#F88F58"/>
<path d="M414.452 248.656C407.542 248.656 407.522 259.406 414.452 259.406C421.382 259.406 421.382 248.656 414.452 248.656Z" fill="#4D2122"/>
<path d="M377.415 271.121C370.505 271.121 370.485 281.871 377.415 281.871C384.345 281.871 384.326 271.121 377.415 271.121Z" fill="#4D2122"/>
<path d="M334.757 230.68C327.847 230.68 327.827 241.431 334.757 241.431C341.687 241.431 341.668 230.68 334.757 230.68Z" fill="#4D2122"/>
<path d="M433.529 292.468C426.618 292.468 426.599 303.219 433.529 303.219C440.459 303.219 440.459 292.468 433.529 292.468Z" fill="#4D2122"/>
<path d="M433.529 356.433C426.618 356.433 426.599 367.184 433.529 367.184C440.459 367.184 440.459 356.433 433.529 356.433Z" fill="#4D2122"/>
<path d="M482.925 301.466C476.014 301.466 475.995 312.216 482.925 312.216C489.855 312.216 489.855 301.466 482.925 301.466Z" fill="#4D2122"/>
<path d="M303.322 253.145C296.412 253.145 296.392 263.896 303.322 263.896C310.252 263.896 310.252 253.145 303.322 253.145Z" fill="#4D2122"/>
<path d="M446.33 322.062C445.519 319.266 443.674 316.885 441.171 315.403C438.667 313.922 435.694 313.45 432.855 314.085C432.242 314.206 431.663 314.462 431.161 314.837C430.696 314.916 430.255 315.101 429.872 315.376C425.079 318.96 419.9 324.335 422.865 330.789C425.521 336.569 433.433 338.496 439.054 336.3C441.757 335.176 443.973 333.127 445.306 330.519C446.639 327.911 447.002 324.913 446.33 322.062V322.062ZM435.82 328.381C434.665 328.882 431.181 328.882 430.565 327.302C429.949 325.722 433.106 323.564 434.126 322.813L434.55 322.447H435.069C438.9 321.58 438.688 327.167 435.82 328.4V328.381Z" fill="#4DAA3D"/>
<path d="M509.663 237.25C508.753 234.733 507.054 232.58 504.819 231.111C502.584 229.641 499.935 228.936 497.266 229.1C496.532 229.155 495.824 229.394 495.206 229.794C494.368 229.606 493.491 229.691 492.705 230.038C491.919 230.385 491.264 230.974 490.836 231.72C487.814 236.633 487.198 242.972 490.971 247.673C492.571 249.707 494.866 251.076 497.415 251.517C499.963 251.958 502.584 251.44 504.773 250.062C506.918 248.796 508.569 246.839 509.457 244.512C510.345 242.184 510.418 239.624 509.663 237.25V237.25ZM500.442 242.644C500.217 242.843 499.949 242.987 499.659 243.063C499.369 243.14 499.065 243.148 498.772 243.086C498.478 243.024 498.203 242.895 497.968 242.708C497.734 242.521 497.546 242.281 497.42 242.009C497.061 241.346 496.873 240.604 496.873 239.851C496.873 239.097 497.061 238.355 497.42 237.693C500.019 237.597 503.638 240.506 500.5 242.644H500.442Z" fill="#4DAA3D"/>
<path d="M510.125 301.716C509.413 295.743 506.487 290.753 500.731 288.576C497.112 287.208 494.956 290.85 495.707 293.836C486.371 299.443 491.318 319.576 503.676 315.665C509.547 313.815 510.818 307.034 510.125 301.716ZM501.655 305.743C500.789 310.887 497.651 301.889 500.269 301.119C500.64 301.01 500.996 300.855 501.328 300.656C501.803 302.314 501.927 304.053 501.693 305.762L501.655 305.743Z" fill="#4DAA3D"/>
<path d="M344.806 259.811C344.059 259.677 343.29 259.737 342.573 259.984C341.929 259.739 341.242 259.628 340.553 259.658C339.865 259.688 339.189 259.858 338.569 260.158C336.236 261.268 334.315 263.089 333.08 265.359C331.845 267.63 331.361 270.234 331.697 272.797C332.031 274.849 332.924 276.77 334.277 278.349C335.63 279.927 337.391 281.103 339.367 281.746C341.344 282.389 343.459 282.475 345.481 281.995C347.502 281.515 349.353 280.488 350.83 279.024C352.307 277.561 353.353 275.72 353.854 273.701C354.354 271.682 354.29 269.565 353.668 267.58C353.046 265.596 351.89 263.821 350.326 262.451C348.763 261.08 346.853 260.167 344.806 259.811V259.811ZM342.554 273.741C338.877 273.259 340.109 269.541 342.188 267.961H342.515C344.113 268.231 345.769 269.175 345.634 271.043C345.617 271.427 345.523 271.803 345.358 272.149C345.192 272.495 344.959 272.804 344.671 273.058C344.384 273.311 344.048 273.504 343.684 273.625C343.32 273.746 342.936 273.792 342.554 273.76V273.741Z" fill="#4DAA3D"/>
<path d="M326.384 331.04C324.371 328.486 321.671 326.559 318.602 325.488C315.533 324.416 312.222 324.243 309.059 324.99C304.785 325.799 305.305 331.078 308.346 332.812C306.152 337.321 305.536 342.581 309.713 346.434C313.89 350.287 322.36 352.58 326.865 347.783C331.004 343.293 329.733 335.587 326.384 331.04ZM320.609 341.444C319.819 342.677 316.451 341.29 315.527 340.211C314.102 338.554 315.95 335.972 317.278 334.257C317.701 334.481 318.101 334.745 318.472 335.047C319.839 336.184 321.841 339.614 320.666 341.444H320.609Z" fill="#4DAA3D"/>
<path d="M403.538 256.536C402.267 251.16 393.913 253.434 395.26 258.828C395.933 261.502 395.717 264.323 394.644 266.863C394.105 267.854 393.964 269.014 394.25 270.106C394.536 271.199 395.228 272.14 396.184 272.739C397.169 273.303 398.337 273.458 399.435 273.17C400.533 272.882 401.474 272.173 402.055 271.198C404.184 266.617 404.706 261.451 403.538 256.536V256.536Z" fill="#E8AC18"/>
<path d="M441.345 280.561L434.8 274.222C434.4 273.823 433.926 273.506 433.404 273.289C432.882 273.073 432.323 272.962 431.758 272.962C431.193 272.962 430.634 273.073 430.112 273.289C429.59 273.506 429.116 273.823 428.717 274.222C428.317 274.622 428 275.097 427.784 275.619C427.568 276.141 427.457 276.701 427.457 277.267C427.457 277.832 427.568 278.392 427.784 278.914C428 279.436 428.317 279.911 428.717 280.311L435.262 286.649C436.068 287.457 437.162 287.91 438.303 287.91C439.444 287.91 440.538 287.457 441.345 286.649C442.151 285.842 442.605 284.747 442.605 283.605C442.605 282.464 442.151 281.369 441.345 280.561Z" fill="#E8AC18"/>
<path d="M406.81 315.376C405.822 314.826 404.659 314.68 403.565 314.967C402.472 315.254 401.531 315.953 400.939 316.917L395.164 325.048C394.6 326.034 394.445 327.202 394.734 328.301C395.022 329.4 395.729 330.342 396.704 330.924C397.693 331.474 398.855 331.62 399.949 331.333C401.043 331.046 401.983 330.347 402.575 329.383L408.35 321.252C408.914 320.266 409.069 319.098 408.781 317.999C408.493 316.9 407.785 315.958 406.81 315.376V315.376Z" fill="#E8AC18"/>
<path d="M470.797 310.328L464.599 302.622C463.788 301.821 462.696 301.373 461.557 301.373C460.419 301.373 459.326 301.821 458.516 302.622C457.734 303.442 457.298 304.532 457.298 305.666C457.298 306.799 457.734 307.889 458.516 308.71L464.714 316.416C465.525 317.217 466.617 317.665 467.756 317.665C468.894 317.665 469.987 317.217 470.797 316.416C471.579 315.596 472.015 314.506 472.015 313.372C472.015 312.239 471.579 311.149 470.797 310.328V310.328Z" fill="#E8AC18"/>
<path d="M475.571 353.967C475.261 352.87 474.532 351.94 473.541 351.377C472.55 350.814 471.377 350.665 470.277 350.962C465.931 352.657 461.413 353.871 456.802 354.584C455.706 354.894 454.777 355.624 454.214 356.616C453.652 357.608 453.503 358.781 453.799 359.882C454.127 360.968 454.859 361.886 455.845 362.446C456.831 363.006 457.994 363.164 459.093 362.888C463.703 362.175 468.222 360.96 472.568 359.266C473.651 358.934 474.565 358.2 475.124 357.215C475.682 356.229 475.842 355.067 475.571 353.967V353.967Z" fill="#E8AC18"/>
<path d="M414.337 361.616L407.734 360.556C406.635 360.28 405.472 360.438 404.486 360.998C403.5 361.558 402.768 362.476 402.44 363.562C402.149 364.663 402.301 365.834 402.862 366.824C403.424 367.815 404.35 368.546 405.443 368.86L411.95 369.92C413.049 370.196 414.212 370.038 415.198 369.478C416.184 368.919 416.917 368 417.244 366.914C417.539 365.826 417.401 364.666 416.859 363.678C416.316 362.69 415.413 361.951 414.337 361.616V361.616Z" fill="#E8AC18"/>
<path d="M547.99 281.293C547.066 275.841 538.788 278.153 539.712 283.586C540.367 287.584 539.734 291.687 537.903 295.3C535.439 300.232 542.85 304.606 545.314 299.635C548.184 293.978 549.124 287.536 547.99 281.293V281.293Z" fill="#E8AC18"/>
<path d="M459.671 215.999L452.991 214.958C451.892 214.682 450.728 214.84 449.743 215.4C448.757 215.96 448.024 216.878 447.697 217.964C447.406 219.065 447.558 220.236 448.119 221.226C448.68 222.216 449.607 222.947 450.7 223.262L457.38 224.303C458.479 224.579 459.642 224.421 460.628 223.861C461.614 223.301 462.347 222.383 462.674 221.297C462.965 220.196 462.813 219.025 462.252 218.035C461.691 217.044 460.764 216.313 459.671 215.999V215.999Z" fill="#E8AC18"/>
<path d="M388.677 211.259C386.619 210.533 384.404 210.38 382.267 210.816C381.168 211.122 380.234 211.851 379.672 212.844C379.109 213.837 378.962 215.013 379.264 216.114C379.595 217.198 380.328 218.113 381.313 218.672C382.297 219.231 383.458 219.391 384.557 219.12H384.326H385.154H385.5C385.807 219.206 386.109 219.309 386.405 219.428C387.505 219.73 388.68 219.583 389.672 219.02C390.665 218.456 391.393 217.522 391.699 216.422C391.931 215.339 391.75 214.209 391.19 213.253C390.631 212.297 389.734 211.586 388.677 211.259V211.259Z" fill="#E8AC18"/>
<path d="M275.275 265.88C271.775 271.489 269.743 277.89 269.365 284.492C268.999 290.021 277.604 290.002 277.951 284.492C278.304 279.416 279.933 274.511 282.686 270.234C285.651 265.514 278.22 261.179 275.275 265.88Z" fill="#E8AC18"/>
<path d="M290.252 307.477C284.727 307.477 284.708 316.07 290.252 316.07C295.795 316.07 295.795 307.477 290.252 307.477Z" fill="#E8AC18"/>
<path d="M343.381 308.132C339.187 307.22 335.059 306.029 331.023 304.567C329.923 304.271 328.751 304.42 327.76 304.983C326.769 305.545 326.039 306.476 325.729 307.573C325.448 308.673 325.604 309.84 326.164 310.828C326.724 311.816 327.644 312.548 328.732 312.871C332.768 314.333 336.897 315.524 341.091 316.436C346.5 317.592 348.791 309.307 343.381 308.132Z" fill="#E8AC18"/>
<path d="M343.786 355.374C342.178 355.278 340.621 354.774 339.262 353.909C338.281 353.359 337.122 353.216 336.037 353.512C334.951 353.808 334.025 354.518 333.458 355.49C332.89 356.462 332.726 357.618 333.002 358.71C333.277 359.802 333.97 360.741 334.931 361.327C337.627 362.908 340.665 363.814 343.786 363.967C344.921 363.957 346.007 363.501 346.81 362.697C347.613 361.894 348.068 360.807 348.078 359.67C348.054 358.538 347.594 357.46 346.794 356.659C345.994 355.859 344.917 355.398 343.786 355.374V355.374Z" fill="#E8AC18"/>
<path d="M410.179 240.66C408.038 238.931 405.633 237.558 403.056 236.595C401.956 236.293 400.782 236.44 399.789 237.003C398.797 237.566 398.068 238.5 397.763 239.6C397.487 240.7 397.645 241.865 398.204 242.851C398.763 243.838 399.681 244.571 400.766 244.899L401.093 245.014L401.478 245.188L402.479 245.708L403.441 246.286C403.576 246.286 404.827 247.307 404.096 246.729C404.916 247.511 406.005 247.947 407.137 247.947C408.27 247.947 409.359 247.511 410.179 246.729C410.968 245.916 411.409 244.828 411.409 243.694C411.409 242.561 410.968 241.473 410.179 240.66V240.66Z" fill="#E8AC18"/>
<path d="M309.829 236.768C309.237 235.804 308.296 235.105 307.202 234.818C306.108 234.531 304.946 234.677 303.957 235.227C300.645 236.786 297.525 238.726 294.66 241.007C293.856 241.815 293.404 242.91 293.404 244.051C293.404 245.192 293.856 246.286 294.66 247.095C295.48 247.877 296.569 248.313 297.701 248.313C298.834 248.313 299.923 247.877 300.743 247.095C303.079 245.321 305.611 243.822 308.289 242.625C309.258 242.043 309.962 241.105 310.25 240.01C310.538 238.916 310.387 237.752 309.829 236.768V236.768Z" fill="#E8AC18"/>
<path d="M499.672 183.785L395.241 258.828L585.238 283.875C585.238 283.875 585.2 227.25 499.672 183.785Z" fill="#FABF7E"/>
<path d="M499.672 183.785L395.241 258.828L585.238 283.875C585.238 283.875 585.2 227.25 499.672 183.785Z" fill="#146666"/>
<path d="M421.921 263.375L519.865 206.346L477.746 192.455L395.241 258.828L421.921 263.375Z" fill="#DDAF73"/>
<path d="M436.475 170.26V188.351C436.475 192.089 437.691 195.724 439.938 198.71C442.184 201.695 445.34 203.868 448.929 204.901L570.801 239.87C574.256 240.865 577.954 240.581 581.216 239.07C584.479 237.559 587.089 234.923 588.569 231.643L599.772 206.847" fill="#DDAF73"/>
<path d="M436.475 170.26L438.168 243.627C438.168 243.627 438.477 247.48 441.345 247.943C444.213 248.405 444.656 243.088 444.656 243.088C444.656 243.088 443.559 215.305 447.081 216.268C450.604 217.232 443.847 260.331 449.757 260.582C455.667 260.832 448.179 212.415 457.014 213.07C465.85 213.725 464.079 230.969 470.258 224.63C476.437 218.291 465.176 186.694 473.126 186.887C481.077 187.079 475.533 197.772 485.042 197.059C494.552 196.347 493.608 190.355 499.037 193.476C504.465 196.597 496.535 206.558 505.582 210.411C514.63 214.265 516.458 195.383 523.08 195.807L436.475 170.26Z" fill="#FDB86A"/>
<path d="M593.535 216.268C597.924 207.868 603.16 198.601 603.16 189.295C603.16 158.7 583.275 134.635 544.101 118.837C508.258 136.177 472.299 153.112 436.301 170.202C491.837 186.251 538.134 200.373 593.535 216.268Z" fill="#F6D6A7"/>
<path d="M588.665 176.001C588.665 188.312 582.89 200.027 572.918 210.296L593.535 216.268C602.736 204.851 607.835 190.669 608.011 176.001C608.011 150.685 592.303 127.256 563.736 110.032L563.139 109.685L541.291 120.243C569.992 133.557 588.665 153.787 588.665 176.001Z" fill="#FDB86A"/>
<path d="M528.066 155.675C535.561 155.675 541.637 152.224 541.637 147.968C541.637 143.712 535.561 140.261 528.066 140.261C520.571 140.261 514.495 143.712 514.495 147.968C514.495 152.224 520.571 155.675 528.066 155.675Z" fill="#E04A31"/>
<path d="M544.833 186.79C552.328 186.79 558.404 183.34 558.404 179.084C558.404 174.827 552.328 171.377 544.833 171.377C537.338 171.377 531.262 174.827 531.262 179.084C531.262 183.34 537.338 186.79 544.833 186.79Z" fill="#E04A31"/>
<path d="M471.375 180.413C474.705 179.007 476.88 176.772 476.88 174.228C476.88 169.971 470.797 166.522 463.405 166.522C456.013 166.522 449.93 169.893 449.93 174.094L471.375 180.413Z" fill="#E04A31"/>
<path d="M481.115 155.675L488.199 151.051C488.199 151.051 514.148 153.941 509.779 176.001L500.154 179.084C500.154 179.084 509.432 161.532 481.115 155.675Z" fill="#9FC359"/>
<path d="M553.341 204.573C554.09 201.685 554.477 198.714 554.496 195.73L548.971 189.334C548.776 193.834 547.826 198.269 546.161 202.454L553.341 204.573Z" fill="#9FC359"/>
<path d="M499.037 140.493L501.52 145.695C515.399 146.562 520.443 136.89 522.291 129.395L499.037 140.493Z" fill="#9FC359"/>
<path d="M533.225 198.62L542.33 201.298C546.001 201.464 549.649 200.646 552.898 198.928C557.364 196.597 562.119 193.437 563.775 188.428C565.546 183.053 564.121 176.984 562.196 171.762C564.973 169.329 566.734 165.94 567.13 162.267C567.525 158.594 566.527 154.907 564.333 151.937C557.364 142.304 544.39 143.132 535.227 148.835C530.434 151.821 534.842 159.451 539.674 156.445C544.506 153.44 550.454 151.59 555.324 155.212C558.808 157.794 560.213 164.21 555.132 166.098C554.378 166.398 553.713 166.886 553.201 167.515C552.689 168.144 552.346 168.894 552.206 169.694C552.065 170.493 552.131 171.315 552.397 172.082C552.663 172.849 553.121 173.535 553.726 174.074C554.802 176.71 555.452 179.5 555.651 182.34C555.824 186.675 553.341 188.409 549.876 190.451C544.101 193.938 537.133 193.052 533.321 187.06C530.28 182.301 522.676 186.713 525.718 191.511C527.605 194.457 530.182 196.897 533.225 198.62V198.62Z" fill="#F88F58"/>
<path d="M485.774 184.652C489.335 182.86 488.7 176.29 483.849 176.29C483.063 176.291 482.292 176.503 481.616 176.903C480.94 177.302 480.382 177.876 480.001 178.563C479.62 179.251 479.43 180.028 479.45 180.814C479.47 181.6 479.699 182.366 480.114 183.033L485.774 184.652Z" fill="#4D2122"/>
<path d="M524.235 183.669C518.576 183.669 518.556 192.474 524.235 192.474C529.914 192.474 529.914 183.669 524.235 183.669Z" fill="#4D2122"/>
<path d="M546.142 131.013C545.401 128.951 544.011 127.184 542.182 125.979C540.353 124.774 538.183 124.194 535.997 124.328C535.393 124.375 534.81 124.573 534.303 124.906C533.614 124.753 532.894 124.826 532.249 125.114C531.604 125.402 531.069 125.889 530.723 126.505C529.381 128.424 528.672 130.713 528.692 133.055C528.713 135.396 529.463 137.673 530.838 139.568C532.151 141.229 534.032 142.346 536.119 142.701C538.205 143.057 540.349 142.627 542.138 141.494C543.89 140.457 545.24 138.857 545.967 136.953C546.694 135.05 546.756 132.956 546.142 131.013V131.013ZM538.596 135.425C538.41 135.586 538.19 135.701 537.952 135.762C537.714 135.823 537.466 135.829 537.226 135.779C536.986 135.729 536.76 135.624 536.567 135.472C536.374 135.321 536.219 135.127 536.113 134.905C535.816 134.362 535.661 133.752 535.661 133.133C535.661 132.513 535.816 131.904 536.113 131.36C538.23 131.36 541.195 133.73 538.596 135.483V135.425Z" fill="#4DAA3D"/>
<path d="M546.546 183.881C546.426 181.537 545.637 179.276 544.272 177.367C542.907 175.458 541.024 173.981 538.846 173.111C535.882 171.994 534.11 175.038 534.726 177.407C527.027 181.993 531.127 198.485 541.252 195.287C546.045 193.784 547.066 188.216 546.546 183.881ZM539.616 187.176C538.904 191.376 536.343 183.997 538.48 183.322C538.784 183.23 539.075 183.101 539.346 182.937C539.733 184.315 539.825 185.76 539.616 187.176V187.176Z" fill="#4DAA3D"/>
<path d="M490.201 166.541L484.85 161.358C484.522 161.031 484.134 160.771 483.706 160.593C483.278 160.416 482.82 160.325 482.357 160.325C481.894 160.325 481.435 160.416 481.008 160.593C480.58 160.771 480.191 161.031 479.864 161.358C479.537 161.686 479.277 162.075 479.1 162.503C478.923 162.931 478.831 163.39 478.831 163.853C478.831 164.317 478.923 164.776 479.1 165.204C479.277 165.632 479.537 166.021 479.864 166.348L485.215 171.473C485.877 172.135 486.773 172.507 487.708 172.507C488.171 172.507 488.63 172.416 489.057 172.238C489.485 172.061 489.874 171.801 490.201 171.473C490.529 171.146 490.788 170.757 490.965 170.329C491.143 169.901 491.234 169.442 491.234 168.978C491.234 168.515 491.143 168.056 490.965 167.628C490.788 167.2 490.529 166.811 490.201 166.483V166.541Z" fill="#E8AC18"/>
<path d="M504.812 190.258L515.303 193.36C515.238 192.462 514.895 191.607 514.321 190.913L509.259 184.594C508.595 183.936 507.7 183.567 506.766 183.567C505.832 183.567 504.936 183.936 504.273 184.594C503.629 185.265 503.27 186.159 503.27 187.089C503.27 188.019 503.629 188.913 504.273 189.584L504.812 190.258Z" fill="#E8AC18"/>
<path d="M577.5 167.138C576.749 162.688 569.973 164.576 570.705 169.065C571.25 172.352 570.73 175.728 569.222 178.698C567.297 182.744 573.265 186.405 575.305 182.263C577.68 177.6 578.452 172.284 577.5 167.138V167.138Z" fill="#E8AC18"/>
<path d="M541.368 120.243C541.368 120.243 538.268 112.71 548.529 108.568C558.789 104.425 563.794 110.032 563.794 110.032" fill="#FDB86A"/>
<path d="M572.918 210.296C573.125 212.226 573.882 214.056 575.101 215.567C576.32 217.077 577.948 218.204 579.791 218.812C586.182 220.738 593.555 216.268 593.555 216.268" fill="#FDB86A"/>
<path d="M436.475 205.864L414.452 204.573L430.257 181.492L436.032 181.954L436.475 205.864Z" fill="#E5994C"/>
<defs>
<linearGradient id="paint0_linear_8_77" x1="470.104" y1="244.378" x2="239.435" y2="463.511" gradientUnits="userSpaceOnUse">
<stop stop-color="#7F4E00"/>
<stop offset="1" stop-color="white"/>
</linearGradient>
</defs>
</svg>
